<?xml version="1.0" encoding="UTF-8"?>
<svg version="1.1" xmlns="http://www.w3.org/2000/svg" width="855" height="854">
<path d="M0 0 C1.23256886 -0.00320648 2.46513772 -0.00641296 3.73505715 -0.0097166 C7.14078919 -0.01656299 10.54630129 -0.01452961 13.9520208 -0.00866088 C17.66314562 -0.00447509 21.37425075 -0.01190127 25.08537072 -0.01781338 C31.58459116 -0.02656385 38.08378009 -0.0278916 44.58300495 -0.02431011 C54.2478039 -0.01899827 63.91257238 -0.02510326 73.57736802 -0.03339304 C91.84365874 -0.04863 110.1099356 -0.05033843 128.37623135 -0.04787002 C142.48197323 -0.04603705 156.58771057 -0.04779704 170.69345188 -0.05209446 C172.720325 -0.05269686 174.74719812 -0.05329806 176.77407124 -0.05389806 C179.82841101 -0.05480532 182.88275078 -0.05571399 185.93709055 -0.05663041 C214.33334286 -0.06505952 242.72959347 -0.06939593 271.12584686 -0.06522369 C272.19624132 -0.06506732 273.26663577 -0.06491094 274.36946642 -0.06474983 C279.79459409 -0.06394405 285.21972174 -0.06309828 290.6448494 -0.06223653 C292.26100753 -0.06197989 292.26100753 -0.06197989 293.90981533 -0.06171808 C296.0886578 -0.06137142 298.26750028 -0.06102289 300.44634275 -0.06067249 C334.35012689 -0.05531513 368.25388501 -0.0632463 402.1576643 -0.08170605 C440.2531892 -0.10242382 478.34869798 -0.1131492 516.44422883 -0.10913056 C520.50651053 -0.10873522 524.56879224 -0.10837367 528.63107395 -0.10803318 C530.13141696 -0.10789708 530.13141696 -0.10789708 531.66206993 -0.10775824 C546.75869993 -0.10659247 561.85531365 -0.11323897 576.95193958 -0.1238451 C594.12187519 -0.13589557 611.29177495 -0.1374578 628.46171109 -0.12505493 C638.06807448 -0.11842616 647.67435217 -0.12005783 657.2807087 -0.13364345 C663.70152261 -0.14189096 670.12227235 -0.13918646 676.54308105 -0.12766818 C680.19872649 -0.12141479 683.85420478 -0.11980302 687.50984053 -0.13153151 C691.45612705 -0.14407561 695.4021604 -0.13320983 699.34844971 -0.12025452 C700.47167764 -0.12756386 701.59490557 -0.13487321 702.75217071 -0.14240405 C724.07232223 0.00242937 742.75779615 7.93281279 757.71796703 22.99593067 C770.27246572 36.3083869 776.65803677 53.67643031 776.66405773 71.79167652 C776.67211667 72.81657676 776.68017562 73.84147701 776.68847877 74.89743483 C776.71273781 78.31252397 776.7228924 81.72750065 776.73285961 85.14265919 C776.74703749 87.59901822 776.76195414 90.05537309 776.7775526 92.51172352 C776.82058727 99.86438904 776.84649595 107.21702972 776.86834046 114.56978077 C776.87681339 117.34285727 776.88640491 120.11592943 776.89599543 122.88900226 C776.93813532 135.12689163 776.97406874 147.36478476 776.99355888 159.60273266 C776.99839773 162.59113926 777.00327986 165.57954577 777.00825024 168.56795216 C777.00948003 169.31062154 777.01070982 170.05329091 777.01197688 170.81846543 C777.03294033 182.85460442 777.09152908 194.89025467 777.16563275 206.92617182 C777.24121199 219.30354184 777.282711 231.68066249 777.29112369 244.05826342 C777.2966914 250.99995075 777.31704559 257.94089544 777.3756876 264.88235569 C777.43074158 271.41122708 777.43958682 277.9390253 777.41754246 284.46816921 C777.41682673 286.85986392 777.43143565 289.25162145 777.46275234 291.64311123 C777.71396347 311.95015346 777.71396347 311.95015346 771.98269176 319.04295826 C770.48174105 320.48836773 768.94582592 321.89923349 767.36298656 323.25447559 C766.34962737 324.41115337 765.35639623 325.58612186 764.39423656 326.78572559 C763.55892406 327.76541309 762.72361156 328.74510059 761.86298656 329.75447559 C758.48925836 333.72273492 755.15119855 337.71467229 751.86298656 341.75447559 C748.11510858 346.3590114 744.29315212 350.89466751 740.44892406 355.41853809 C737.55053834 358.83507099 734.69143556 362.27952397 731.86298656 365.75447559 C728.11510858 370.3590114 724.29315212 374.89466751 720.44892406 379.41853809 C717.55053834 382.83507099 714.69143556 386.27952397 711.86298656 389.75447559 C708.11510858 394.3590114 704.29315212 398.89466751 700.44892406 403.41853809 C697.55053834 406.83507099 694.69143556 410.27952397 691.86298656 413.75447559 C688.11510858 418.3590114 684.29315212 422.89466751 680.44892406 427.41853809 C677.55053834 430.83507099 674.69143556 434.27952397 671.86298656 437.75447559 C668.11510858 442.3590114 664.29315212 446.89466751 660.44892406 451.41853809 C656.80439249 455.71460604 653.23511317 460.068159 649.67939281 464.43806934 C646.62253212 468.15475832 643.51415197 471.8266949 640.37421703 475.47346973 C638.24771895 477.95686 636.2424756 480.42370375 634.34345531 483.09041309 C629.20241494 490.29869286 623.6432043 493.30628996 615.36298656 496.25447559 C614.46193188 496.59349903 613.56087719 496.93252247 612.63251781 497.28181934 C598.36328872 501.74996179 581.15621865 500.73547045 567.36298656 495.25447559 C566.46579906 494.92705372 565.56861156 494.59963184 564.64423656 494.26228809 C557.09999473 491.0722846 552.48214324 485.47647309 547.36298656 479.25447559 C546.62306469 478.36244434 545.88314281 477.47041309 545.12079906 476.55135059 C543.64312418 474.75289931 542.17319109 472.94806214 540.71064281 471.13728809 C538.1348342 467.97431512 535.50593434 464.86129887 532.86298656 461.75447559 C528.74168318 456.90512984 524.69306713 452.00286029 520.67548656 447.06697559 C518.10152264 443.93647893 515.4872957 440.84275099 512.86298656 437.75447559 C508.74197023 432.90488178 504.69307303 428.00286753 500.67548656 423.06697559 C498.10152264 419.93647893 495.4872957 416.84275099 492.86298656 413.75447559 C488.74197023 408.90488178 484.69307303 404.00286753 480.67548656 399.06697559 C478.10152264 395.93647893 475.4872957 392.84275099 472.86298656 389.75447559 C468.74197023 384.90488178 464.69307303 380.00286753 460.67548656 375.06697559 C458.10152264 371.93647893 455.4872957 368.84275099 452.86298656 365.75447559 C448.74197023 360.90488178 444.69307303 356.00286753 440.67548656 351.06697559 C438.10152264 347.93647893 435.4872957 344.84275099 432.86298656 341.75447559 C428.74197023 336.90488178 424.69307303 332.00286753 420.67548656 327.06697559 C418.10152264 323.93647893 415.4872957 320.84275099 412.86298656 317.75447559 C409.49020082 313.78539624 406.1512214 309.79430696 402.86298656 305.75447559 C402.1398225 304.87404591 401.41665844 303.99361622 400.67158031 303.08650684 C398.99858518 301.03418625 397.34948239 298.97028394 395.71064281 296.89119434 C386.41197623 285.26375538 374.45991803 277.42065317 359.36298656 275.25447559 C342.36501802 274.03403135 325.18552505 275.97801403 311.73798656 287.50447559 C310.95423656 288.41197559 310.17048656 289.31947559 309.36298656 290.25447559 C308.71072094 290.96345997 308.05845531 291.67244434 307.38642406 292.40291309 C302.64733763 297.56542306 298.15448395 302.89093614 293.74579906 308.33650684 C291.15542809 311.50864967 288.5161579 314.63490854 285.86298656 317.75447559 C282.49001719 321.72339448 279.15121678 325.7146499 275.86298656 329.75447559 C272.11510858 334.3590114 268.29315212 338.89466751 264.44892406 343.41853809 C261.55053834 346.83507099 258.69143556 350.27952397 255.86298656 353.75447559 C252.11510858 358.3590114 248.29315212 362.89466751 244.44892406 367.41853809 C241.55053834 370.83507099 238.69143556 374.27952397 235.86298656 377.75447559 C232.11510858 382.3590114 228.29315212 386.89466751 224.44892406 391.41853809 C221.55053834 394.83507099 218.69143556 398.27952397 215.86298656 401.75447559 C212.11510858 406.3590114 208.29315212 410.89466751 204.44892406 415.41853809 C201.55053834 418.83507099 198.69143556 422.27952397 195.86298656 425.75447559 C192.11510858 430.3590114 188.29315212 434.89466751 184.44892406 439.41853809 C181.55053834 442.83507099 178.69143556 446.27952397 175.86298656 449.75447559 C172.57474788 453.79431169 169.23562176 457.78526441 165.86298656 461.75447559 C162.43504789 465.79129704 159.0323524 469.84555928 155.67548656 473.94197559 C154.94329906 474.82756153 154.21111156 475.71314747 153.45673656 476.62556934 C152.08744201 478.3448515 150.77128595 480.10817923 149.51923656 481.91463184 C142.74065278 491.43624424 132.25902073 496.4096399 120.93720531 498.81306934 C104.63586824 500.82623993 85.37045904 500.69757995 71.59736156 490.36775684 C66.03761753 485.10932761 61.20944421 479.16276231 56.36298656 473.25447559 C55.55603344 472.27607716 54.74908031 471.29767872 53.91767406 470.28963184 C52.47528835 468.52930089 51.03770379 466.76502397 49.60517406 464.99666309 C47.06044974 461.88447411 44.46680432 458.81721062 41.86298656 455.75447559 C37.74184709 450.90498837 33.69307045 446.00286436 29.67548656 441.06697559 C27.10152264 437.93647893 24.4872957 434.84275099 21.86298656 431.75447559 C17.74197023 426.90488178 13.69307303 422.00286753 9.67548656 417.06697559 C6.63865886 413.37353649 3.54337701 409.73149073 0.4467268 406.08821583 C-2.43246663 402.6949345 -5.26905581 399.27179774 -8.07451344 395.81697559 C-11.52975495 391.57055177 -15.06399178 387.40151265 -18.63701344 383.25447559 C-22.956303 378.24128071 -27.18798462 373.1691024 -31.35966969 368.03181934 C-33.91905397 364.91051192 -36.52295135 361.82997529 -39.13701344 358.75447559 C-43.25809135 353.90493508 -47.30692826 349.00286595 -51.32451344 344.06697559 C-53.89847838 340.93647768 -56.5127568 337.84279698 -59.13701344 334.75447559 C-64.04304357 328.97925003 -68.86971889 323.14515242 -73.63701344 317.25447559 C-74.32736211 316.58292376 -75.01771078 315.91137192 -75.72897911 315.21947002 C-78.47184914 310.95718068 -78.18920562 307.34710474 -78.13821888 302.3770647 C-78.14375328 301.37473863 -78.14928767 300.37241256 -78.15498978 299.33971298 C-78.16861688 295.97657662 -78.15361488 292.61417975 -78.13872242 289.25105762 C-78.14250507 286.84118808 -78.14800466 284.43132071 -78.1550951 282.02145863 C-78.16762766 276.15023041 -78.16146615 270.27919833 -78.14641952 264.40799244 C-78.12954131 257.56036072 -78.1327725 250.71278234 -78.1365136 243.86513625 C-78.14239406 231.6338701 -78.12821943 219.40270681 -78.10356617 207.17146778 C-78.07969744 195.32800397 -78.07254117 183.48467788 -78.08305836 171.64119434 C-78.09450149 158.73197183 -78.09635181 145.82281306 -78.08196026 132.91359127 C-78.08043455 131.53302662 -78.07891419 130.15246197 -78.07739925 128.77189732 C-78.07664144 128.0927477 -78.07588363 127.41359809 -78.07510285 126.71386818 C-78.07038203 121.95290011 -78.07219611 117.19196069 -78.07646465 112.43099308 C-78.08194437 106.00086216 -78.07101568 99.57087843 -78.04951 93.14078045 C-78.04397812 90.78952452 -78.04344344 88.4382503 -78.04846287 86.08699322 C-78.0771738 70.69941515 -78.07019436 55.58549353 -71.01201344 41.50447559 C-70.66573902 40.79549122 -70.31946461 40.08650684 -69.96269703 39.35603809 C-60.97515138 21.66243593 -45.81632922 9.90977325 -27.42216969 3.33260059 C-18.26597447 0.72464406 -9.49316627 -0.03692679 0 0 Z " fill="#1FCC95" transform="translate(77.63701343536377,-0.25447559356689453)"/>
<path d="M0 0 C5.65374699 4.55301749 10.05538989 10.37873819 14.58203125 16.01171875 C17.17481892 19.21605246 19.82804464 22.36178496 22.5 25.5 C26.62152898 30.34915078 30.66992407 35.25162101 34.6875 40.1875 C37.26146392 43.31799666 39.87569086 46.41172461 42.5 49.5 C46.62101634 54.34959381 50.66991354 59.25160806 54.6875 64.1875 C57.26146392 67.31799666 59.87569086 70.41172461 62.5 73.5 C66.62101634 78.34959381 70.66991354 83.25160806 74.6875 88.1875 C77.26146392 91.31799666 79.87569086 94.41172461 82.5 97.5 C86.62101634 102.34959381 90.66991354 107.25160806 94.6875 112.1875 C97.26146392 115.31799666 99.87569086 118.41172461 102.5 121.5 C106.62101634 126.34959381 110.66991354 131.25160806 114.6875 136.1875 C117.7243277 139.8809391 120.81960955 143.52298486 123.91625977 147.16625977 C126.7954532 150.55954109 129.63204237 153.98267786 132.4375 157.4375 C135.89274151 161.68392382 139.42697834 165.85296294 143 170 C147.31316365 175.00608483 151.53730632 180.07250777 155.70703125 185.19921875 C158.36423258 188.44489738 161.04895331 191.66577721 163.75 194.875 C164.19802979 195.41068604 164.64605957 195.94637207 165.10766602 196.49829102 C171.20432042 203.71846041 176.23978636 207.59194897 185 211 C185.79921875 211.32355469 186.5984375 211.64710938 187.421875 211.98046875 C201.06744327 216.60866308 217.792074 215.32360282 231 210 C232.423125 209.45085937 232.423125 209.45085937 233.875 208.890625 C242.75599636 204.80334827 248.07850126 197.48000868 254 190 C255.51842927 188.14386406 257.03905978 186.28952537 258.5625 184.4375 C259.27535156 183.55964844 259.98820313 182.68179688 260.72265625 181.77734375 C263.28204054 178.65603633 265.88593791 175.5754997 268.5 172.5 C271.87283589 168.53096457 275.21176645 164.53982979 278.5 160.5 C282.24787798 155.8954642 286.06983444 151.35980809 289.9140625 146.8359375 C292.81244823 143.4194046 295.671551 139.97495162 298.5 136.5 C302.24787798 131.8954642 306.06983444 127.35980809 309.9140625 122.8359375 C312.81244823 119.4194046 315.671551 115.97495162 318.5 112.5 C322.24787798 107.8954642 326.06983444 103.35980809 329.9140625 98.8359375 C332.81244823 95.4194046 335.671551 91.97495162 338.5 88.5 C342.24787798 83.8954642 346.06983444 79.35980809 349.9140625 74.8359375 C352.81244823 71.4194046 355.671551 67.97495162 358.5 64.5 C362.24426355 59.89990478 366.06220874 55.36833905 369.90307617 50.84912109 C372.91055412 47.30438597 375.87537473 43.72853185 378.8125 40.125 C380.20824187 38.41659194 381.60406737 36.70825219 383 35 C383.60070312 34.26136719 384.20140625 33.52273438 384.8203125 32.76171875 C386.16883522 31.13632542 387.57760938 29.56116044 389 28 C389.66 28 390.32 28 391 28 C391.04582978 63.04985222 391.08104575 98.09969835 391.10213066 133.14957426 C391.10463192 137.29242455 391.10722058 141.43527479 391.10986328 145.578125 C391.11065021 146.81521692 391.11065021 146.81521692 391.11145304 148.07730059 C391.12014331 161.41152922 391.13590566 174.74574051 391.15430559 188.07995887 C391.17304306 201.77351566 391.18412484 215.46706341 391.18817699 229.16063249 C391.19091408 237.60264522 391.19954267 246.04460894 391.21583293 254.48660658 C391.22644734 260.28441407 391.22959059 266.0821964 391.22700275 271.88001288 C391.22572836 275.21943917 391.22872149 278.55871171 391.23841095 281.89813423 C391.33197625 315.82049935 391.33197625 315.82049935 384 332 C383.57976563 332.93585938 383.15953125 333.87171875 382.7265625 334.8359375 C374.65631524 351.11637851 359.0319679 364.05232867 342 370 C333.24655849 372.44870407 325.09370017 373.43417648 316.02598 373.38031673 C314.7812728 373.38497665 313.53656561 373.38963657 312.25414002 373.3944377 C308.82358454 373.40427438 305.39352423 373.40083981 301.96299949 373.39160402 C298.22157153 373.38486009 294.48018505 373.39557736 290.73876607 373.40399987 C284.18941487 373.41634515 277.64013534 373.41758847 271.09077644 373.41144943 C261.35141829 373.40234473 251.61212622 373.41040134 241.87277313 373.42174067 C224.47596314 373.441396 207.07918296 373.44375718 189.68236451 373.43854547 C174.45678118 373.43398653 159.23120963 373.43458969 144.00562668 373.44038582 C141.96249854 373.44114269 139.91937041 373.44189867 137.87624227 373.44265376 C134.79735306 373.44379897 131.71846385 373.44494885 128.63957465 373.44611301 C100.0189757 373.45681635 71.39838068 373.46154494 42.77778053 373.45364285 C41.69914617 373.45334567 40.6205118 373.4530485 39.50919155 373.45274232 C30.75017824 373.45029344 21.99116498 373.44768182 13.23215173 373.44505819 C-20.93379251 373.43495566 -55.09968761 373.44331194 -89.265625 373.46655273 C-127.6618557 373.49262892 -166.05805682 373.50547235 -204.45429671 373.49836498 C-208.54886285 373.49764893 -212.643429 373.49697455 -216.73799515 373.49632454 C-217.7461623 373.49615473 -218.75432945 373.49598492 -219.79304712 373.49580997 C-235.00643528 373.49350774 -250.21979595 373.50148031 -265.43317795 373.51461601 C-282.73589665 373.52952918 -300.03855096 373.53036777 -317.34126829 373.5125451 C-327.02077312 373.50298494 -336.70012774 373.50441119 -346.37962253 373.52177979 C-352.85039962 373.53227809 -359.32106244 373.52815649 -365.79182831 373.51229975 C-369.47518843 373.50367809 -373.15825451 373.50121809 -376.84159939 373.51656907 C-404.93994886 373.62570472 -404.93994886 373.62570472 -417 369 C-417.74639343 368.71977145 -418.49278685 368.4395429 -419.26179826 368.15082258 C-436.74241787 360.92244376 -450.44074434 347.07882129 -458.19091797 329.96582031 C-463.17036759 317.86729034 -464.15622223 305.37649214 -464.12025452 292.43968201 C-464.12110894 291.30493173 -464.12196337 290.17018146 -464.12284368 289.00104481 C-464.12448525 285.21479159 -464.11899882 281.42858309 -464.11352539 277.64233398 C-464.11268557 274.92182894 -464.11335788 272.20132476 -464.1139679 269.4808197 C-464.11449099 263.63199339 -464.11136664 257.78317828 -464.10573006 251.93435478 C-464.09758594 243.47804933 -464.09499685 235.02174926 -464.09374207 226.5654403 C-464.09155612 212.84399815 -464.08490843 199.12256196 -464.07543945 185.40112305 C-464.06625351 172.07592804 -464.05917846 158.75073465 -464.05493164 145.42553711 C-464.05466892 144.60349084 -464.05440619 143.78144457 -464.05413551 142.93448781 C-464.05283042 138.81031987 -464.05156673 134.68615191 -464.05032361 130.56198394 C-464.03996523 96.37465167 -464.02235936 62.18732648 -464 28 C-459.72395144 29.91598443 -457.25266951 32.88814429 -454.3125 36.4375 C-453.78213135 37.06712646 -453.2517627 37.69675293 -452.70532227 38.34545898 C-448.85108601 42.93416752 -445.05491217 47.57071395 -441.27734375 52.22265625 C-438.71795946 55.34396367 -436.11406209 58.4245003 -433.5 61.5 C-429.37892208 66.34954051 -425.33008517 71.25160964 -421.3125 76.1875 C-418.73853608 79.31799666 -416.12430914 82.41172461 -413.5 85.5 C-409.37898366 90.34959381 -405.33008646 95.25160806 -401.3125 100.1875 C-398.73853608 103.31799666 -396.12430914 106.41172461 -393.5 109.5 C-389.37898366 114.34959381 -385.33008646 119.25160806 -381.3125 124.1875 C-378.73853608 127.31799666 -376.12430914 130.41172461 -373.5 133.5 C-369.37898366 138.34959381 -365.33008646 143.25160806 -361.3125 148.1875 C-358.73853608 151.31799666 -356.12430914 154.41172461 -353.5 157.5 C-349.37898366 162.34959381 -345.33008646 167.25160806 -341.3125 172.1875 C-338.73853582 175.31799698 -336.12429576 178.41171278 -333.5 181.5 C-330.00320662 185.61534432 -326.54149116 189.75485218 -323.125 193.9375 C-322.39023437 194.82695313 -321.65546875 195.71640625 -320.8984375 196.6328125 C-319 199 -319 199 -317.7890625 200.8046875 C-313.86695387 206.49616844 -307.17985178 208.56964066 -301 211 C-299.73542969 211.51626953 -299.73542969 211.51626953 -298.4453125 212.04296875 C-284.88778366 216.65599374 -268.11119812 215.28461557 -255 210 C-254.05125 209.63390625 -253.1025 209.2678125 -252.125 208.890625 C-243.24400364 204.80334827 -237.92149874 197.48000868 -232 190 C-230.48157073 188.14386406 -228.96094022 186.28952537 -227.4375 184.4375 C-226.72464844 183.55964844 -226.01179687 182.68179688 -225.27734375 181.77734375 C-222.71795946 178.65603633 -220.11406209 175.5754997 -217.5 172.5 C-214.12716411 168.53096457 -210.78823355 164.53982979 -207.5 160.5 C-203.75212202 155.8954642 -199.93016556 151.35980809 -196.0859375 146.8359375 C-193.18755177 143.4194046 -190.328449 139.97495162 -187.5 136.5 C-183.75212202 131.8954642 -179.93016556 127.35980809 -176.0859375 122.8359375 C-173.18755177 119.4194046 -170.328449 115.97495162 -167.5 112.5 C-163.75212202 107.8954642 -159.93016556 103.35980809 -156.0859375 98.8359375 C-153.18755177 95.4194046 -150.328449 91.97495162 -147.5 88.5 C-143.75212202 83.8954642 -139.93016556 79.35980809 -136.0859375 74.8359375 C-133.18755177 71.4194046 -130.328449 67.97495162 -127.5 64.5 C-123.75212202 59.8954642 -119.93016556 55.35980809 -116.0859375 50.8359375 C-113.18755177 47.4194046 -110.328449 43.97495162 -107.5 40.5 C-103.75379155 35.89751534 -99.93477213 31.36277589 -96.09033203 26.8425293 C-93.14041096 23.36756977 -90.24335594 19.85546927 -87.375 16.3125 C-65.20678167 -10.75564537 -31.16588428 -19.60948339 0 0 Z " fill="#1FCC95" transform="translate(464,481)"/>
</svg>
